<?xml version="1.0" encoding="UTF-8"?>
<svg xmlns="http://www.w3.org/2000/svg" viewBox="0 0 1280 670" width="100%" preserveAspectRatio="xMidYMid meet">
  <rect width="1280" height="670" fill="#f8f9fa"/>

  <!-- ============== 上部アイコン群（y=0-220、上クロップ域） ============== -->
  <g opacity="0.6">

    <!-- 歯車 -->
    <g transform="translate(90, 80)" stroke="#5da8d4" stroke-width="2.5" fill="none">
      <circle cx="0" cy="0" r="20"/>
      <circle cx="0" cy="0" r="6" fill="#5da8d4"/>
      <line x1="0" y1="-30" x2="0" y2="-22" stroke-linecap="round"/>
      <line x1="0" y1="22" x2="0" y2="30" stroke-linecap="round"/>
      <line x1="-30" y1="0" x2="-22" y2="0" stroke-linecap="round"/>
      <line x1="22" y1="0" x2="30" y2="0" stroke-linecap="round"/>
      <line x1="-21" y1="-21" x2="-15" y2="-15" stroke-linecap="round"/>
      <line x1="15" y1="15" x2="21" y2="21" stroke-linecap="round"/>
      <line x1="-21" y1="21" x2="-15" y2="15" stroke-linecap="round"/>
      <line x1="15" y1="-15" x2="21" y2="-21" stroke-linecap="round"/>
    </g>

    <!-- バーチャート -->
    <g transform="translate(220, 60)">
      <line x1="-26" y1="20" x2="30" y2="20" stroke="#3a7ba8" stroke-width="1.5"/>
      <line x1="-26" y1="20" x2="-26" y2="-26" stroke="#3a7ba8" stroke-width="1.5"/>
      <rect x="-20" y="0" width="9" height="20" fill="#a8d4ee"/>
      <rect x="-7" y="-10" width="9" height="30" fill="#a8d4ee"/>
      <rect x="6" y="-22" width="9" height="42" fill="#f59e0b"/>
      <rect x="19" y="-15" width="9" height="35" fill="#a8d4ee"/>
    </g>

    <!-- {} -->
    <text x="350" y="100" text-anchor="middle" fill="#3a7ba8" font-weight="700" font-size="44">{ }</text>

    <!-- クラウド -->
    <g transform="translate(470, 60)" fill="#a8d4ee" stroke="#3a7ba8" stroke-width="2">
      <path d="M -28,4 Q -28,-12 -14,-12 Q -10,-22 4,-18 Q 18,-22 22,-8 Q 32,-8 32,4 L 32,8 Q 32,14 26,14 L -22,14 Q -28,14 -28,8 Z"/>
    </g>

    <!-- カレンダー -->
    <g transform="translate(600, 80)">
      <rect x="-20" y="-18" width="40" height="40" rx="3" fill="#fff" stroke="#3a7ba8" stroke-width="2"/>
      <rect x="-20" y="-18" width="40" height="10" rx="3" fill="#f59e0b"/>
      <line x1="-12" y1="-22" x2="-12" y2="-12" stroke="#3a7ba8" stroke-width="2" stroke-linecap="round"/>
      <line x1="12" y1="-22" x2="12" y2="-12" stroke="#3a7ba8" stroke-width="2" stroke-linecap="round"/>
      <line x1="-13" y1="0" x2="13" y2="0" stroke="#3a7ba8" stroke-width="1"/>
      <line x1="-13" y1="9" x2="13" y2="9" stroke="#3a7ba8" stroke-width="1"/>
    </g>

    <!-- ターゲット -->
    <g transform="translate(720, 60)" stroke="#5da8d4" stroke-width="2" fill="none">
      <circle cx="0" cy="0" r="16"/>
      <circle cx="0" cy="0" r="8"/>
      <circle cx="0" cy="0" r="3" fill="#f59e0b" stroke="none"/>
    </g>

    <!-- リンクチェーン -->
    <g transform="translate(840, 90)" stroke="#3a7ba8" stroke-width="2.5" fill="none">
      <rect x="-22" y="-8" width="20" height="16" rx="8"/>
      <rect x="2" y="-8" width="20" height="16" rx="8"/>
    </g>

    <!-- メール -->
    <g transform="translate(960, 70)" stroke="#3a7ba8" stroke-width="2" fill="#a8d4ee">
      <rect x="-22" y="-14" width="44" height="28" rx="3"/>
      <polyline points="-22,-14 0,4 22,-14" fill="none" stroke-linejoin="round"/>
    </g>

    <!-- ロボット顔 -->
    <g transform="translate(1090, 80)">
      <rect x="-30" y="-22" width="60" height="44" rx="8" fill="#fef3e2" stroke="#f59e0b" stroke-width="2.5"/>
      <line x1="0" y1="-22" x2="0" y2="-32" stroke="#f59e0b" stroke-width="2.5"/>
      <circle cx="0" cy="-34" r="3" fill="#f59e0b"/>
      <circle cx="-10" cy="-2" r="4" fill="#3a7ba8"/>
      <circle cx="10" cy="-2" r="4" fill="#3a7ba8"/>
      <path d="M -8,12 Q 0,18 8,12" stroke="#3a7ba8" stroke-width="2" fill="none" stroke-linecap="round"/>
    </g>

    <!-- 上部第2列 -->

    <!-- 虫眼鏡 -->
    <g transform="translate(80, 180)" stroke="#3a7ba8" stroke-width="2.5" fill="none">
      <circle cx="0" cy="0" r="18"/>
      <line x1="13" y1="13" x2="26" y2="26" stroke-linecap="round"/>
    </g>

    <!-- データベース -->
    <g transform="translate(180, 175)" stroke="#3a7ba8" stroke-width="1.8" fill="#fff">
      <ellipse cx="0" cy="-18" rx="18" ry="5"/>
      <path d="M -18,-18 L -18,18 A 18,5 0 0,0 18,18 L 18,-18"/>
      <ellipse cx="0" cy="0" rx="18" ry="5" fill="none"/>
    </g>

    <!-- グリッド -->
    <g transform="translate(280, 180)" stroke="#3a7ba8" stroke-width="1.5" fill="none">
      <rect x="-18" y="-18" width="14" height="14" rx="2" fill="#a8d4ee"/>
      <rect x="-2" y="-18" width="14" height="14" rx="2"/>
      <rect x="-18" y="-2" width="14" height="14" rx="2"/>
      <rect x="-2" y="-2" width="14" height="14" rx="2" fill="#fde6c1"/>
    </g>

    <!-- WiFi -->
    <g transform="translate(380, 180)" stroke="#3a7ba8" stroke-width="2.5" fill="none" stroke-linecap="round">
      <path d="M -22,-2 Q 0,-22 22,-2" />
      <path d="M -14,6 Q 0,-8 14,6" />
      <circle cx="0" cy="14" r="3" fill="#3a7ba8" stroke="none"/>
    </g>

    <!-- 鍵 -->
    <g transform="translate(490, 180)" stroke="#3a7ba8" stroke-width="2.5" fill="none">
      <circle cx="-8" cy="0" r="8" fill="#fde6c1"/>
      <line x1="0" y1="0" x2="20" y2="0" stroke-linecap="round"/>
      <line x1="14" y1="0" x2="14" y2="6" stroke-linecap="round"/>
      <line x1="20" y1="0" x2="20" y2="6" stroke-linecap="round"/>
    </g>

    <!-- スマホ -->
    <g transform="translate(600, 180)" stroke="#3a7ba8" stroke-width="2" fill="#fff">
      <rect x="-10" y="-22" width="20" height="40" rx="3"/>
      <line x1="-6" y1="14" x2="6" y2="14" stroke-width="1.5"/>
    </g>

    <!-- 通知ベル -->
    <g transform="translate(700, 180)" fill="#fde6c1" stroke="#f59e0b" stroke-width="2">
      <path d="M -12,4 Q -14,-14 0,-14 Q 14,-14 12,4 L 14,8 L -14,8 Z"/>
      <circle cx="0" cy="14" r="3" fill="#f59e0b"/>
    </g>

    <!-- ハート（コミュニティ） -->
    <g transform="translate(800, 180)" fill="#fde6c1" stroke="#f59e0b" stroke-width="2">
      <path d="M 0,12 L -14,-2 Q -16,-14 -6,-14 Q 0,-14 0,-6 Q 0,-14 6,-14 Q 16,-14 14,-2 Z"/>
    </g>

    <!-- 折れ線 -->
    <g transform="translate(910, 180)" stroke="#3a7ba8" stroke-width="2.5" fill="none">
      <polyline points="-25,8 -12,-4 0,2 12,-12 25,-2" stroke-linejoin="round" stroke-linecap="round"/>
      <circle cx="-12" cy="-4" r="2.5" fill="#3a7ba8"/>
      <circle cx="0" cy="2" r="2.5" fill="#3a7ba8"/>
      <circle cx="12" cy="-12" r="2.5" fill="#f59e0b"/>
    </g>

    <!-- ネットワーク -->
    <g transform="translate(1020, 180)" stroke="#3a7ba8" stroke-width="2" fill="#fff">
      <circle cx="0" cy="-14" r="6" fill="#a8d4ee"/>
      <circle cx="-16" cy="10" r="6" fill="#a8d4ee"/>
      <circle cx="16" cy="10" r="6" fill="#a8d4ee"/>
      <line x1="0" y1="-14" x2="-16" y2="10"/>
      <line x1="0" y1="-14" x2="16" y2="10"/>
      <line x1="-16" y1="10" x2="16" y2="10"/>
    </g>

    <!-- チェックリスト -->
    <g transform="translate(1130, 180)">
      <rect x="-20" y="-22" width="40" height="44" rx="3" fill="#fff" stroke="#3a7ba8" stroke-width="2"/>
      <rect x="-14" y="-14" width="5" height="5" fill="#f59e0b"/>
      <line x1="-5" y1="-12" x2="14" y2="-12" stroke="#3a7ba8" stroke-width="1.5"/>
      <rect x="-14" y="-3" width="5" height="5" fill="#f59e0b"/>
      <line x1="-5" y1="-1" x2="14" y2="-1" stroke="#3a7ba8" stroke-width="1.5"/>
      <rect x="-14" y="8" width="5" height="5" fill="none" stroke="#3a7ba8" stroke-width="1.5"/>
      <line x1="-5" y1="10" x2="10" y2="10" stroke="#3a7ba8" stroke-width="1.5"/>
    </g>

  </g>

  <!-- ============== ハッシュタグ（上部） ============== -->
  <g opacity="0.4" fill="#6b7280" font-weight="700" letter-spacing="2">
    <text x="380" y="40" font-size="18">#DX</text>
    <text x="630" y="160" font-size="18">#AI活用</text>
    <text x="900" y="40" font-size="18">#ノーコード</text>
  </g>

  <!-- ============== 中央帯 1280×216（y=227-443、必ず見える領域） ============== -->
  <g>
    <text x="640" y="245" text-anchor="middle" fill="#5da8d4" font-weight="600" font-size="20" letter-spacing="5" dominant-baseline="hanging">中小企業のひとりDX担当が、AIで会社をアップデートする</text>
    <line x1="600" y1="285" x2="680" y2="285" stroke="#f59e0b" stroke-width="3"/>

    <text x="640" y="305" text-anchor="middle" font-weight="700" font-size="78" dominant-baseline="hanging">
      <tspan fill="#1f2937">ひとり</tspan><tspan fill="#f59e0b">DX担当</tspan><tspan fill="#1f2937">の記録</tspan>
    </text>

    <text x="640" y="408" text-anchor="middle" fill="#6b7280" font-weight="600" font-size="20" letter-spacing="3" dominant-baseline="hanging">by haryukin</text>
  </g>

  <!-- 中央帯の左右の余白にもアイコン -->
  <g opacity="0.6">
    <!-- 左余白：{}（薄く） -->
    <text x="80" y="350" text-anchor="middle" fill="#a8d4ee" font-weight="700" font-size="56">{ }</text>

    <!-- 右余白：歯車 -->
    <g transform="translate(1180, 340)" stroke="#a8d4ee" stroke-width="2" fill="none">
      <circle cx="0" cy="0" r="18"/>
      <circle cx="0" cy="0" r="5" fill="#a8d4ee"/>
      <line x1="0" y1="-26" x2="0" y2="-20" stroke-linecap="round"/>
      <line x1="0" y1="20" x2="0" y2="26" stroke-linecap="round"/>
      <line x1="-26" y1="0" x2="-20" y2="0" stroke-linecap="round"/>
      <line x1="20" y1="0" x2="26" y2="0" stroke-linecap="round"/>
    </g>
  </g>

  <!-- ============== ハッシュタグ（中央帯左右） ============== -->
  <g opacity="0.4" fill="#6b7280" font-weight="700" letter-spacing="2">
    <text x="60" y="260" font-size="16">#内製化</text>
    <text x="1120" y="260" font-size="16">#Claude</text>
    <text x="60" y="430" font-size="16">#自動化</text>
    <text x="1120" y="430" font-size="16">#業務効率化</text>
  </g>

  <!-- ============== 下部アイコン群（y=460-660、下クロップ域） ============== -->
  <g opacity="0.6">

    <!-- 矢印循環 -->
    <g transform="translate(110, 510)" stroke="#f59e0b" stroke-width="3" fill="none">
      <path d="M -18,0 A 18,18 0 1,1 12,13"/>
      <polygon points="12,13 18,6 20,17" fill="#f59e0b" stroke="none"/>
    </g>

    <!-- 書類 -->
    <g transform="translate(220, 510)">
      <rect x="-16" y="-22" width="32" height="44" rx="3" fill="#fff" stroke="#3a7ba8" stroke-width="2"/>
      <line x1="-10" y1="-12" x2="10" y2="-12" stroke="#3a7ba8" stroke-width="1.5"/>
      <line x1="-10" y1="-4" x2="10" y2="-4" stroke="#3a7ba8" stroke-width="1.5"/>
      <line x1="-10" y1="4" x2="6" y2="4" stroke="#3a7ba8" stroke-width="1.5"/>
      <line x1="-10" y1="12" x2="10" y2="12" stroke="#f59e0b" stroke-width="1.5"/>
    </g>

    <!-- 電球 -->
    <g transform="translate(320, 510)" fill="#fef3e2" stroke="#f59e0b" stroke-width="2">
      <circle cx="0" cy="-4" r="14"/>
      <rect x="-6" y="8" width="12" height="6" fill="#f59e0b"/>
      <rect x="-4" y="14" width="8" height="3" fill="#f59e0b"/>
    </g>

    <!-- バーチャート -->
    <g transform="translate(420, 510)">
      <line x1="-22" y1="18" x2="26" y2="18" stroke="#3a7ba8" stroke-width="1.5"/>
      <line x1="-22" y1="18" x2="-22" y2="-18" stroke="#3a7ba8" stroke-width="1.5"/>
      <rect x="-16" y="2" width="8" height="16" fill="#a8d4ee"/>
      <rect x="-4" y="-6" width="8" height="24" fill="#a8d4ee"/>
      <rect x="8" y="-14" width="8" height="32" fill="#f59e0b"/>
    </g>

    <!-- 折れ線 -->
    <g transform="translate(530, 510)" stroke="#3a7ba8" stroke-width="2.5" fill="none">
      <polyline points="-25,8 -12,-4 0,2 12,-12 25,-2" stroke-linejoin="round" stroke-linecap="round"/>
      <circle cx="-12" cy="-4" r="2.5" fill="#3a7ba8"/>
      <circle cx="12" cy="-12" r="2.5" fill="#f59e0b"/>
    </g>

    <!-- メール -->
    <g transform="translate(640, 510)" stroke="#3a7ba8" stroke-width="2" fill="#a8d4ee">
      <rect x="-20" y="-12" width="40" height="24" rx="3"/>
      <polyline points="-20,-12 0,2 20,-12" fill="none" stroke-linejoin="round"/>
    </g>

    <!-- ロケット（DX的） -->
    <g transform="translate(750, 510)">
      <path d="M 0,-22 Q 12,-10 12,4 L 12,16 L -12,16 L -12,4 Q -12,-10 0,-22 Z" fill="#fef3e2" stroke="#f59e0b" stroke-width="2"/>
      <circle cx="0" cy="-2" r="4" fill="#3a7ba8"/>
      <polygon points="-12,8 -22,18 -8,16" fill="#a8d4ee" stroke="#3a7ba8" stroke-width="1.5"/>
      <polygon points="12,8 22,18 8,16" fill="#a8d4ee" stroke="#3a7ba8" stroke-width="1.5"/>
    </g>

    <!-- 人型シルエット -->
    <g transform="translate(860, 510)" fill="#a8d4ee" stroke="#3a7ba8" stroke-width="2">
      <circle cx="0" cy="-12" r="9"/>
      <path d="M -14,20 Q -14,-2 0,-2 Q 14,-2 14,20 Z"/>
    </g>

    <!-- ターゲット -->
    <g transform="translate(960, 510)" stroke="#5da8d4" stroke-width="2" fill="none">
      <circle cx="0" cy="0" r="18"/>
      <circle cx="0" cy="0" r="10"/>
      <circle cx="0" cy="0" r="3" fill="#f59e0b" stroke="none"/>
    </g>

    <!-- {} -->
    <text x="1060" y="525" text-anchor="middle" fill="#3a7ba8" font-weight="700" font-size="40">{ }</text>

    <!-- ハート（応援） -->
    <g transform="translate(1170, 510)" fill="#fde6c1" stroke="#f59e0b" stroke-width="2">
      <path d="M 0,14 L -16,-4 Q -18,-16 -8,-16 Q 0,-16 0,-8 Q 0,-16 8,-16 Q 18,-16 16,-4 Z"/>
    </g>

    <!-- 下部 第2列 -->

    <!-- データベース -->
    <g transform="translate(160, 615)" stroke="#3a7ba8" stroke-width="1.8" fill="#fff">
      <ellipse cx="0" cy="-16" rx="18" ry="5"/>
      <path d="M -18,-16 L -18,16 A 18,5 0 0,0 18,16 L 18,-16"/>
      <ellipse cx="0" cy="0" rx="18" ry="5" fill="none"/>
    </g>

    <!-- カレンダー -->
    <g transform="translate(290, 615)">
      <rect x="-18" y="-16" width="36" height="36" rx="3" fill="#fff" stroke="#3a7ba8" stroke-width="2"/>
      <rect x="-18" y="-16" width="36" height="9" rx="3" fill="#f59e0b"/>
      <line x1="-13" y1="0" x2="13" y2="0" stroke="#3a7ba8" stroke-width="1"/>
      <line x1="-13" y1="9" x2="13" y2="9" stroke="#3a7ba8" stroke-width="1"/>
    </g>

    <!-- 虫眼鏡 -->
    <g transform="translate(410, 615)" stroke="#3a7ba8" stroke-width="2.5" fill="none">
      <circle cx="0" cy="0" r="16"/>
      <line x1="11" y1="11" x2="22" y2="22" stroke-linecap="round"/>
    </g>

    <!-- ピン -->
    <g transform="translate(520, 615)" fill="#fde6c1" stroke="#f59e0b" stroke-width="2">
      <path d="M 0,-18 Q 12,-18 12,-6 Q 12,4 0,18 Q -12,4 -12,-6 Q -12,-18 0,-18 Z"/>
      <circle cx="0" cy="-8" r="4" fill="#fff" stroke-width="1.5"/>
    </g>

    <!-- ネットワーク -->
    <g transform="translate(630, 615)" stroke="#3a7ba8" stroke-width="2" fill="#fff">
      <circle cx="0" cy="-14" r="6" fill="#a8d4ee"/>
      <circle cx="-16" cy="10" r="6" fill="#a8d4ee"/>
      <circle cx="16" cy="10" r="6" fill="#a8d4ee"/>
      <line x1="0" y1="-14" x2="-16" y2="10"/>
      <line x1="0" y1="-14" x2="16" y2="10"/>
      <line x1="-16" y1="10" x2="16" y2="10"/>
    </g>

    <!-- WiFi -->
    <g transform="translate(750, 615)" stroke="#3a7ba8" stroke-width="2.5" fill="none" stroke-linecap="round">
      <path d="M -20,-2 Q 0,-20 20,-2"/>
      <path d="M -12,6 Q 0,-8 12,6"/>
      <circle cx="0" cy="14" r="3" fill="#3a7ba8" stroke="none"/>
    </g>

    <!-- 通知ベル -->
    <g transform="translate(860, 615)" fill="#fde6c1" stroke="#f59e0b" stroke-width="2">
      <path d="M -12,4 Q -14,-14 0,-14 Q 14,-14 12,4 L 14,8 L -14,8 Z"/>
      <circle cx="0" cy="14" r="3" fill="#f59e0b"/>
    </g>

    <!-- リンク -->
    <g transform="translate(970, 615)" stroke="#3a7ba8" stroke-width="2.5" fill="none">
      <rect x="-22" y="-7" width="18" height="14" rx="7"/>
      <rect x="4" y="-7" width="18" height="14" rx="7"/>
    </g>

    <!-- スマホ -->
    <g transform="translate(1080, 615)" stroke="#3a7ba8" stroke-width="2" fill="#fff">
      <rect x="-10" y="-20" width="20" height="38" rx="3"/>
      <line x1="-6" y1="13" x2="6" y2="13" stroke-width="1.5"/>
    </g>

    <!-- グリッド -->
    <g transform="translate(1180, 615)" stroke="#3a7ba8" stroke-width="1.5" fill="none">
      <rect x="-16" y="-16" width="13" height="13" rx="2" fill="#a8d4ee"/>
      <rect x="0" y="-16" width="13" height="13" rx="2"/>
      <rect x="-16" y="0" width="13" height="13" rx="2"/>
      <rect x="0" y="0" width="13" height="13" rx="2" fill="#fde6c1"/>
    </g>

  </g>

  <!-- ============== ハッシュタグ（下部） ============== -->
  <g opacity="0.4" fill="#6b7280" font-weight="700" letter-spacing="2">
    <text x="180" y="468" font-size="18">#note連載</text>
    <text x="540" y="468" font-size="18">#ChatGPT</text>
    <text x="850" y="468" font-size="18">#バイブコーディング</text>
    <text x="280" y="568" font-size="18">#ひとり情シス</text>
    <text x="700" y="568" font-size="18">#Anthropic</text>
    <text x="1000" y="568" font-size="18">#WordPress</text>
  </g>
</svg>
